<?xml version="1.0" standalone="no"?>
<!DOCTYPE svg PUBLIC "-//W3C//DTD SVG 20010904//EN"
 "http://www.w3.org/TR/2001/REC-SVG-20010904/DTD/svg10.dtd">
<svg version="1.0" xmlns="http://www.w3.org/2000/svg"
 width="428.000000pt" height="284.000000pt" viewBox="0 0 428.000000 284.000000"
 preserveAspectRatio="xMidYMid meet">
<metadata>
Created by potrace 1.16, written by Peter Selinger 2001-2019
</metadata>
<g transform="translate(0.000000,284.000000) scale(0.100000,-0.100000)"
fill="#000000" stroke="none">
<path d="M15 1435 c-4 -768 -6 -1398 -4 -1400 3 -2 4241 -24 4245 -21 1 1 4
629 8 1397 l7 1397 -573 6 c-315 3 -1271 8 -2124 11 l-1551 5 -8 -1395z m3623
1309 l563 -6 -7 -1327 c-4 -729 -7 -1326 -8 -1326 -8 -3 -4102 18 -4105 20 -1
2 0 600 4 1329 l8 1325 1491 -4 c820 -3 1744 -8 2054 -11z"/>
<path d="M1657 2023 c-15 -25 -87 -793 -87 -926 0 -117 28 -439 39 -450 18
-18 465 -137 516 -137 32 0 113 17 202 41 81 23 173 48 203 56 30 9 65 18 78
20 12 3 25 9 27 13 16 25 65 631 65 795 0 193 -27 562 -43 583 -7 9 -120 12
-503 12 -271 0 -495 -3 -497 -7z m955 -248 c9 -99 17 -206 17 -237 l1 -58
-109 0 c-127 0 -117 -11 -127 128 -4 51 -10 95 -15 97 -17 11 -337 25 -399 18
l-65 -8 -15 -163 c-9 -90 -13 -165 -11 -168 2 -2 170 -4 373 -4 l368 0 0 -33
c0 -37 -59 -639 -62 -642 -5 -2 -114 -33 -213 -60 -55 -15 -129 -35 -164 -45
l-64 -19 -225 64 c-123 35 -226 66 -227 67 -2 2 -8 57 -14 123 -6 66 -13 141
-16 168 l-6 47 109 0 110 0 6 -31 c3 -17 6 -51 6 -75 0 -23 6 -49 14 -56 7 -8
59 -27 116 -42 112 -32 105 -32 281 15 l76 20 6 52 c3 29 9 91 13 140 l7 87
-366 0 c-201 0 -368 3 -370 8 -3 6 52 608 68 740 l6 52 437 -2 437 -3 17 -180z
m-298 -136 c2 -2 7 -46 11 -96 l7 -93 -182 0 -183 0 6 68 c4 37 7 82 7 101 l0
34 165 -5 c91 -2 167 -6 169 -9z m-18 -616 c-4 -37 -9 -69 -11 -72 -3 -2 -43
-14 -90 -27 l-85 -22 -72 20 c-40 11 -78 25 -84 31 -7 7 -14 40 -16 75 l-4 62
184 0 185 0 -7 -67z"/>
</g>
</svg>
